# xmcd
#
# Track frame offsets: 
#        150
#        29870
#        51830
#        72454
#        89486
#        123151
#        137767
#        154311
#        168602
#        192066
#        207191
#        225087
#        241391
#        263879
#        301831
#
# Disc length: 4231 seconds
#
# Revision: 0
# Processed by: cddbd v1.5.2PL0 Copyright (c) Steve Scherf et al.
# Submitted via: ExactAudioCopyFreeDBPlugin 1.0
#
DISCID=d110850f
DTITLE=Various Artist - Jakarta Blues Festival 2011
DYEAR=2011
DGENRE=Blues
TTITLE0=Gugun Blues Shelter - Twenty Dollars
TTITLE1=Abdee Negara - Insomnia Blues
TTITLE2=Ginda And The White Flowers - Cinta Kok Merusak
TTITLE3=Trias Acustica - Innocent Voice
TTITLE4=Bonita - It's Over Now
TTITLE5=Adrian Adieoetomo, Oding Nasution, Tjahyo Wisanggeni feat. Bon
TTITLE5=ita - None of My Business
TTITLE6=Bayu and Foxy Train - No Such Things
TTITLE7=Hammers - Mama Sorry
TTITLE8=Andre Harihandoyo and Sonic People - Homesich Homeless
TTITLE9=Krisna and The Alter Ego - Johnny Blues
TTITLE10=Uncle Traff - Jangan Main Hakim Sendiri
TTITLE11=Cube - Trying Hard
TTITLE12=Adrian Adieoetomo - Lidah Api Menari
TTITLE13=Irham and Friends Blues Band - Sometime Blues
TTITLE14=Ruzan 'N' Gigs - Batuk Menahun
EXTD=
EXTT0=
EXTT1=
EXTT2=
EXTT3=
EXTT4=
EXTT5=
EXTT6=
EXTT7=
EXTT8=
EXTT9=
EXTT10=
EXTT11=
EXTT12=
EXTT13=
EXTT14=
PLAYORDER=
